<svg width="53" height="53" viewBox="0 0 53 53" fill="none" xmlns="http://www.w3.org/2000/svg">
<rect x="0.706787" y="0.585938" width="51" height="51" rx="25.5" stroke="black" stroke-opacity="0.2"/>
<g opacity="0.9" clip-path="url(#clip0_1_551)">
<path d="M38.4467 34.4654C37.993 35.5135 37.456 36.4783 36.8338 37.3653C35.9857 38.5746 35.2913 39.4116 34.7561 39.8764C33.9265 40.6393 33.0377 41.03 32.0858 41.0523C31.4025 41.0523 30.5785 40.8578 29.6192 40.4634C28.6569 40.0708 27.7724 39.8764 26.9638 39.8764C26.1157 39.8764 25.206 40.0708 24.2331 40.4634C23.2587 40.8578 22.4737 41.0634 21.8736 41.0837C20.9608 41.1226 20.051 40.7208 19.1429 39.8764C18.5633 39.3708 17.8383 38.5042 16.9698 37.2764C16.038 35.9654 15.2719 34.445 14.6718 32.7118C14.029 30.8396 13.7068 29.0267 13.7068 27.2716C13.7068 25.2611 14.1412 23.527 15.0114 22.0739C15.6952 20.9068 16.605 19.986 17.7437 19.3101C18.8824 18.6342 20.1127 18.2898 21.4377 18.2678C22.1626 18.2678 23.1133 18.492 24.2948 18.9327C25.4729 19.3749 26.2294 19.5992 26.561 19.5992C26.809 19.5992 27.6493 19.337 29.0739 18.8142C30.4211 18.3294 31.5581 18.1287 32.4895 18.2078C35.0135 18.4115 36.9097 19.4064 38.1708 21.199C35.9135 22.5667 34.7969 24.4824 34.8191 26.9399C34.8394 28.8541 35.5339 30.447 36.8986 31.7118C37.5171 32.2988 38.2079 32.7525 38.9763 33.0747C38.8097 33.558 38.6338 34.021 38.4467 34.4654ZM32.658 11.6865C32.658 13.1868 32.1099 14.5877 31.0173 15.8843C29.6989 17.4257 28.1041 18.3165 26.3747 18.1759C26.3527 17.9959 26.3399 17.8065 26.3399 17.6074C26.3399 16.1671 26.9669 14.6256 28.0804 13.3653C28.6363 12.7272 29.3433 12.1966 30.2007 11.7733C31.0562 11.3564 31.8655 11.1258 32.6266 11.0863C32.6488 11.2869 32.658 11.4875 32.658 11.6865V11.6865Z" fill="black"/>
</g>
<defs>
<clipPath id="clip0_1_551">
<rect width="30" height="30" fill="white" transform="translate(11.2068 11.0859)"/>
</clipPath>
</defs>
</svg>
