<svg width="24" height="25" viewBox="0 0 24 25" fill="none" xmlns="http://www.w3.org/2000/svg">
<g opacity="0.5">
<path d="M7 9.19531L9.94202 10.9347C11.6572 11.9488 12.3428 11.9488 14.058 10.9347L17 9.19531" stroke="black" stroke-width="2" stroke-linecap="round" stroke-linejoin="round"/>
<path d="M2.01577 14.1709C2.08114 17.2364 2.11383 18.7692 3.24496 19.9046C4.37609 21.0401 5.95034 21.0796 9.09884 21.1587C11.0393 21.2075 12.9607 21.2075 14.9012 21.1587C18.0497 21.0796 19.6239 21.0401 20.755 19.9046C21.8862 18.7692 21.9189 17.2364 21.9842 14.1709C22.0053 13.1852 22.0053 12.2053 21.9842 11.2197C21.9189 8.15417 21.8862 6.6214 20.755 5.48597C19.6239 4.35054 18.0497 4.31099 14.9012 4.23188C12.9607 4.18312 11.0393 4.18312 9.09882 4.23187C5.95034 4.31097 4.37609 4.35052 3.24496 5.48596C2.11383 6.62139 2.08114 8.15416 2.01577 11.2196C1.99474 12.2053 1.99474 13.1852 2.01577 14.1709Z" stroke="black" stroke-width="2" stroke-linejoin="round"/>
</g>
</svg>
