<svg width="53" height="53" viewBox="0 0 53 53" fill="none" xmlns="http://www.w3.org/2000/svg">
<rect x="0.706787" y="0.585938" width="51" height="51" rx="25.5" stroke="black" stroke-opacity="0.2"/>
<g opacity="0.9" clip-path="url(#clip0_1_549)">
<path d="M41.2068 26.0859C41.2068 17.8017 34.491 11.0859 26.2068 11.0859C17.9226 11.0859 11.2068 17.8017 11.2068 26.0859C11.2068 33.1203 16.05 39.0231 22.5834 40.6443V30.6699H19.4904V26.0859H22.5834V24.1107C22.5834 19.0053 24.894 16.6389 29.9064 16.6389C30.8568 16.6389 32.4966 16.8255 33.1674 17.0115V21.1665C32.8134 21.1293 32.1984 21.1107 31.4346 21.1107C28.9752 21.1107 28.0248 22.0425 28.0248 24.4647V26.0859H32.9244L32.0826 30.6699H28.0248V40.9761C35.4522 40.0791 41.2074 33.7551 41.2074 26.0859H41.2068Z" fill="#0866FF"/>
<path d="M32.0819 30.6699L32.9237 26.0859H28.0241V24.4647C28.0241 22.0425 28.9745 21.1107 31.4339 21.1107C32.1977 21.1107 32.8127 21.1293 33.1667 21.1665V17.0115C32.4959 16.8249 30.8561 16.6389 29.9057 16.6389C24.8933 16.6389 22.5827 19.0053 22.5827 24.1107V26.0859H19.4897V30.6699H22.5827V40.6443C23.7431 40.9323 24.9569 41.0859 26.2061 41.0859C26.8211 41.0859 27.4277 41.0481 28.0235 40.9761V30.6699H32.0813H32.0819Z" fill="white"/>
</g>
<defs>
<clipPath id="clip0_1_549">
<rect width="30" height="30" fill="white" transform="translate(11.2068 11.0859)"/>
</clipPath>
</defs>
</svg>
