<svg width="53" height="53" viewBox="0 0 53 53" fill="none" xmlns="http://www.w3.org/2000/svg">
<rect x="0.706787" y="0.585938" width="51" height="51" rx="25.5" stroke="black" stroke-opacity="0.2"/>
<g opacity="0.9" clip-path="url(#clip0_1_547)">
<path d="M26.2065 23.3586V29.1677H34.2792C33.9248 31.0359 32.861 32.6178 31.2656 33.6814L36.1337 37.4587C38.9701 34.8406 40.6065 30.9951 40.6065 26.427C40.6065 25.3634 40.511 24.3405 40.3337 23.3588L26.2065 23.3586Z" fill="#4285F4"/>
<path d="M17.8001 28.9409L16.7021 29.7814L12.8157 32.8086C15.2838 37.704 20.3426 41.0859 26.2062 41.0859C30.2561 41.0859 33.6515 39.7495 36.1333 37.4587L31.2652 33.6814C29.9288 34.5814 28.2243 35.1269 26.2062 35.1269C22.3062 35.1269 18.9926 32.4951 17.8062 28.9496L17.8001 28.9409Z" fill="#34A853"/>
<path d="M12.8158 19.3632C11.7931 21.3813 11.2068 23.6586 11.2068 26.0858C11.2068 28.513 11.7931 30.7903 12.8158 32.8084C12.8158 32.822 17.8068 28.9357 17.8068 28.9357C17.5068 28.0357 17.3294 27.0812 17.3294 26.0856C17.3294 25.0901 17.5068 24.1356 17.8068 23.2356L12.8158 19.3632Z" fill="#FBBC05"/>
<path d="M26.2065 17.0587C28.4156 17.0587 30.3792 17.8223 31.9474 19.295L36.2428 14.9996C33.6382 12.5724 30.2565 11.0859 26.2065 11.0859C20.3429 11.0859 15.2838 14.4541 12.8157 19.3632L17.8065 23.236C18.9928 19.6905 22.3065 17.0587 26.2065 17.0587Z" fill="#EA4335"/>
</g>
<defs>
<clipPath id="clip0_1_547">
<rect width="30" height="30" fill="white" transform="translate(11.2068 11.0859)"/>
</clipPath>
</defs>
</svg>
